# xmcd
#
# Track frame offsets:
#	150
#	14761
#	32118
#
# Disc length: 640 seconds
#
# Revision: 0
# Processed by: cddbd v1.5.1PL0 Copyright (c) Steve Scherf et al.
# Submitted via: dBpowerAMP V4.0
#
DISCID=20027e03
DTITLE=Mirage - Demo 2003
DYEAR=1900
DGENRE=
TTITLE0=out of my way
TTITLE1=gin and vitamins
TTITLE2=hide the sun
EXTD=Mirage rox
EXTT0=
EXTT1=
EXTT2=
PLAYORDER=
